<?xml version="1.0" encoding="UTF-8"?>
<svg xmlns="http://www.w3.org/2000/svg" width="1600" height="900" viewBox="0 0 1600 900">
  <defs>
    <linearGradient id="sky" x1="0" x2="0" y1="0" y2="1">
      <stop offset="0" stop-color="#0b1a2a"/>
      <stop offset="1" stop-color="#07101c"/>
    </linearGradient>
    <linearGradient id="mist" x1="0" x2="1" y1="0" y2="0">
      <stop offset="0" stop-color="#5eead4" stop-opacity="0.18"/>
      <stop offset="1" stop-color="#34d399" stop-opacity="0.06"/>
    </linearGradient>
  </defs>

  <rect width="1600" height="900" fill="url(#sky)"/>
  <rect y="520" width="1600" height="380" fill="#06101a"/>

  <!-- blocky hills -->
  <g opacity="0.95">
    <g fill="#0d2233">
      <rect x="0" y="530" width="100" height="370"/>
      <rect x="90" y="505" width="120" height="395"/>
      <rect x="200" y="540" width="140" height="360"/>
      <rect x="330" y="490" width="180" height="410"/>
      <rect x="500" y="520" width="150" height="380"/>
      <rect x="640" y="500" width="170" height="400"/>
      <rect x="800" y="540" width="150" height="360"/>
      <rect x="940" y="505" width="170" height="395"/>
      <rect x="1100" y="525" width="190" height="375"/>
      <rect x="1280" y="495" width="160" height="405"/>
      <rect x="1430" y="530" width="170" height="370"/>
    </g>

    <!-- trees -->
    <g fill="#0a1a26">
      <rect x="140" y="480" width="26" height="70"/>
      <rect x="132" y="458" width="42" height="28"/>
      <rect x="610" y="470" width="24" height="85"/>
      <rect x="600" y="445" width="44" height="32"/>
      <rect x="1040" y="475" width="26" height="78"/>
      <rect x="1030" y="450" width="46" height="32"/>
      <rect x="1360" y="465" width="24" height="88"/>
      <rect x="1350" y="440" width="44" height="32"/>
    </g>
  </g>

  <rect y="420" width="1600" height="260" fill="url(#mist)"/>

  <g opacity="0.08" fill="#ffffff">
    <rect x="40" y="40" width="2" height="2"/>
    <rect x="120" y="40" width="2" height="2"/>
    <rect x="200" y="40" width="2" height="2"/>
    <rect x="280" y="40" width="2" height="2"/>
    <rect x="360" y="40" width="2" height="2"/>
    <rect x="440" y="40" width="2" height="2"/>
    <rect x="520" y="40" width="2" height="2"/>
    <rect x="600" y="40" width="2" height="2"/>
    <rect x="680" y="40" width="2" height="2"/>
    <rect x="760" y="40" width="2" height="2"/>
    <rect x="840" y="40" width="2" height="2"/>
    <rect x="920" y="40" width="2" height="2"/>
    <rect x="1000" y="40" width="2" height="2"/>
    <rect x="1080" y="40" width="2" height="2"/>
    <rect x="1160" y="40" width="2" height="2"/>
    <rect x="1240" y="40" width="2" height="2"/>
    <rect x="1320" y="40" width="2" height="2"/>
    <rect x="1400" y="40" width="2" height="2"/>
    <rect x="1480" y="40" width="2" height="2"/>
    <rect x="1560" y="40" width="2" height="2"/>
    <rect x="40" y="120" width="2" height="2"/>
    <rect x="120" y="120" width="2" height="2"/>
    <rect x="200" y="120" width="2" height="2"/>
    <rect x="280" y="120" width="2" height="2"/>
    <rect x="360" y="120" width="2" height="2"/>
    <rect x="440" y="120" width="2" height="2"/>
    <rect x="520" y="120" width="2" height="2"/>
    <rect x="600" y="120" width="2" height="2"/>
    <rect x="680" y="120" width="2" height="2"/>
    <rect x="760" y="120" width="2" height="2"/>
    <rect x="840" y="120" width="2" height="2"/>
    <rect x="920" y="120" width="2" height="2"/>
    <rect x="1000" y="120" width="2" height="2"/>
    <rect x="1080" y="120" width="2" height="2"/>
    <rect x="1160" y="120" width="2" height="2"/>
    <rect x="1240" y="120" width="2" height="2"/>
    <rect x="1320" y="120" width="2" height="2"/>
    <rect x="1400" y="120" width="2" height="2"/>
    <rect x="1480" y="120" width="2" height="2"/>
    <rect x="1560" y="120" width="2" height="2"/>
    <rect x="40" y="200" width="2" height="2"/>
    <rect x="120" y="200" width="2" height="2"/>
    <rect x="200" y="200" width="2" height="2"/>
    <rect x="280" y="200" width="2" height="2"/>
    <rect x="360" y="200" width="2" height="2"/>
    <rect x="440" y="200" width="2" height="2"/>
    <rect x="520" y="200" width="2" height="2"/>
    <rect x="600" y="200" width="2" height="2"/>
    <rect x="680" y="200" width="2" height="2"/>
    <rect x="760" y="200" width="2" height="2"/>
    <rect x="840" y="200" width="2" height="2"/>
    <rect x="920" y="200" width="2" height="2"/>
    <rect x="1000" y="200" width="2" height="2"/>
    <rect x="1080" y="200" width="2" height="2"/>
    <rect x="1160" y="200" width="2" height="2"/>
    <rect x="1240" y="200" width="2" height="2"/>
    <rect x="1320" y="200" width="2" height="2"/>
    <rect x="1400" y="200" width="2" height="2"/>
    <rect x="1480" y="200" width="2" height="2"/>
    <rect x="1560" y="200" width="2" height="2"/>
    <rect x="40" y="280" width="2" height="2"/>
    <rect x="120" y="280" width="2" height="2"/>
    <rect x="200" y="280" width="2" height="2"/>
    <rect x="280" y="280" width="2" height="2"/>
    <rect x="360" y="280" width="2" height="2"/>
    <rect x="440" y="280" width="2" height="2"/>
    <rect x="520" y="280" width="2" height="2"/>
    <rect x="600" y="280" width="2" height="2"/>
    <rect x="680" y="280" width="2" height="2"/>
    <rect x="760" y="280" width="2" height="2"/>
    <rect x="840" y="280" width="2" height="2"/>
    <rect x="920" y="280" width="2" height="2"/>
    <rect x="1000" y="280" width="2" height="2"/>
    <rect x="1080" y="280" width="2" height="2"/>
    <rect x="1160" y="280" width="2" height="2"/>
    <rect x="1240" y="280" width="2" height="2"/>
    <rect x="1320" y="280" width="2" height="2"/>
    <rect x="1400" y="280" width="2" height="2"/>
    <rect x="1480" y="280" width="2" height="2"/>
    <rect x="1560" y="280" width="2" height="2"/>
    <rect x="40" y="360" width="2" height="2"/>
    <rect x="120" y="360" width="2" height="2"/>
    <rect x="200" y="360" width="2" height="2"/>
    <rect x="280" y="360" width="2" height="2"/>
    <rect x="360" y="360" width="2" height="2"/>
    <rect x="440" y="360" width="2" height="2"/>
    <rect x="520" y="360" width="2" height="2"/>
    <rect x="600" y="360" width="2" height="2"/>
    <rect x="680" y="360" width="2" height="2"/>
    <rect x="760" y="360" width="2" height="2"/>
    <rect x="840" y="360" width="2" height="2"/>
    <rect x="920" y="360" width="2" height="2"/>
    <rect x="1000" y="360" width="2" height="2"/>
    <rect x="1080" y="360" width="2" height="2"/>
    <rect x="1160" y="360" width="2" height="2"/>
    <rect x="1240" y="360" width="2" height="2"/>
    <rect x="1320" y="360" width="2" height="2"/>
    <rect x="1400" y="360" width="2" height="2"/>
    <rect x="1480" y="360" width="2" height="2"/>
    <rect x="1560" y="360" width="2" height="2"/>
    <rect x="40" y="440" width="2" height="2"/>
    <rect x="120" y="440" width="2" height="2"/>
    <rect x="200" y="440" width="2" height="2"/>
    <rect x="280" y="440" width="2" height="2"/>
    <rect x="360" y="440" width="2" height="2"/>
    <rect x="440" y="440" width="2" height="2"/>
    <rect x="520" y="440" width="2" height="2"/>
    <rect x="600" y="440" width="2" height="2"/>
    <rect x="680" y="440" width="2" height="2"/>
    <rect x="760" y="440" width="2" height="2"/>
    <rect x="840" y="440" width="2" height="2"/>
    <rect x="920" y="440" width="2" height="2"/>
    <rect x="1000" y="440" width="2" height="2"/>
    <rect x="1080" y="440" width="2" height="2"/>
    <rect x="1160" y="440" width="2" height="2"/>
    <rect x="1240" y="440" width="2" height="2"/>
    <rect x="1320" y="440" width="2" height="2"/>
    <rect x="1400" y="440" width="2" height="2"/>
    <rect x="1480" y="440" width="2" height="2"/>
    <rect x="1560" y="440" width="2" height="2"/>
    <rect x="40" y="520" width="2" height="2"/>
    <rect x="120" y="520" width="2" height="2"/>
    <rect x="200" y="520" width="2" height="2"/>
    <rect x="280" y="520" width="2" height="2"/>
    <rect x="360" y="520" width="2" height="2"/>
    <rect x="440" y="520" width="2" height="2"/>
    <rect x="520" y="520" width="2" height="2"/>
    <rect x="600" y="520" width="2" height="2"/>
    <rect x="680" y="520" width="2" height="2"/>
    <rect x="760" y="520" width="2" height="2"/>
    <rect x="840" y="520" width="2" height="2"/>
    <rect x="920" y="520" width="2" height="2"/>
    <rect x="1000" y="520" width="2" height="2"/>
    <rect x="1080" y="520" width="2" height="2"/>
    <rect x="1160" y="520" width="2" height="2"/>
    <rect x="1240" y="520" width="2" height="2"/>
    <rect x="1320" y="520" width="2" height="2"/>
    <rect x="1400" y="520" width="2" height="2"/>
    <rect x="1480" y="520" width="2" height="2"/>
    <rect x="1560" y="520" width="2" height="2"/>
    <rect x="40" y="600" width="2" height="2"/>
    <rect x="120" y="600" width="2" height="2"/>
    <rect x="200" y="600" width="2" height="2"/>
    <rect x="280" y="600" width="2" height="2"/>
    <rect x="360" y="600" width="2" height="2"/>
    <rect x="440" y="600" width="2" height="2"/>
    <rect x="520" y="600" width="2" height="2"/>
    <rect x="600" y="600" width="2" height="2"/>
    <rect x="680" y="600" width="2" height="2"/>
    <rect x="760" y="600" width="2" height="2"/>
    <rect x="840" y="600" width="2" height="2"/>
    <rect x="920" y="600" width="2" height="2"/>
    <rect x="1000" y="600" width="2" height="2"/>
    <rect x="1080" y="600" width="2" height="2"/>
    <rect x="1160" y="600" width="2" height="2"/>
    <rect x="1240" y="600" width="2" height="2"/>
    <rect x="1320" y="600" width="2" height="2"/>
    <rect x="1400" y="600" width="2" height="2"/>
    <rect x="1480" y="600" width="2" height="2"/>
    <rect x="1560" y="600" width="2" height="2"/>
    <rect x="40" y="680" width="2" height="2"/>
    <rect x="120" y="680" width="2" height="2"/>
    <rect x="200" y="680" width="2" height="2"/>
    <rect x="280" y="680" width="2" height="2"/>
    <rect x="360" y="680" width="2" height="2"/>
    <rect x="440" y="680" width="2" height="2"/>
    <rect x="520" y="680" width="2" height="2"/>
    <rect x="600" y="680" width="2" height="2"/>
    <rect x="680" y="680" width="2" height="2"/>
    <rect x="760" y="680" width="2" height="2"/>
    <rect x="840" y="680" width="2" height="2"/>
    <rect x="920" y="680" width="2" height="2"/>
    <rect x="1000" y="680" width="2" height="2"/>
    <rect x="1080" y="680" width="2" height="2"/>
    <rect x="1160" y="680" width="2" height="2"/>
    <rect x="1240" y="680" width="2" height="2"/>
    <rect x="1320" y="680" width="2" height="2"/>
    <rect x="1400" y="680" width="2" height="2"/>
    <rect x="1480" y="680" width="2" height="2"/>
    <rect x="1560" y="680" width="2" height="2"/>
    <rect x="40" y="760" width="2" height="2"/>
    <rect x="120" y="760" width="2" height="2"/>
    <rect x="200" y="760" width="2" height="2"/>
    <rect x="280" y="760" width="2" height="2"/>
    <rect x="360" y="760" width="2" height="2"/>
    <rect x="440" y="760" width="2" height="2"/>
    <rect x="520" y="760" width="2" height="2"/>
    <rect x="600" y="760" width="2" height="2"/>
    <rect x="680" y="760" width="2" height="2"/>
    <rect x="760" y="760" width="2" height="2"/>
    <rect x="840" y="760" width="2" height="2"/>
    <rect x="920" y="760" width="2" height="2"/>
    <rect x="1000" y="760" width="2" height="2"/>
    <rect x="1080" y="760" width="2" height="2"/>
    <rect x="1160" y="760" width="2" height="2"/>
    <rect x="1240" y="760" width="2" height="2"/>
    <rect x="1320" y="760" width="2" height="2"/>
    <rect x="1400" y="760" width="2" height="2"/>
    <rect x="1480" y="760" width="2" height="2"/>
    <rect x="1560" y="760" width="2" height="2"/>
    <rect x="40" y="840" width="2" height="2"/>
    <rect x="120" y="840" width="2" height="2"/>
    <rect x="200" y="840" width="2" height="2"/>
    <rect x="280" y="840" width="2" height="2"/>
    <rect x="360" y="840" width="2" height="2"/>
    <rect x="440" y="840" width="2" height="2"/>
    <rect x="520" y="840" width="2" height="2"/>
    <rect x="600" y="840" width="2" height="2"/>
    <rect x="680" y="840" width="2" height="2"/>
    <rect x="760" y="840" width="2" height="2"/>
    <rect x="840" y="840" width="2" height="2"/>
    <rect x="920" y="840" width="2" height="2"/>
    <rect x="1000" y="840" width="2" height="2"/>
    <rect x="1080" y="840" width="2" height="2"/>
    <rect x="1160" y="840" width="2" height="2"/>
    <rect x="1240" y="840" width="2" height="2"/>
    <rect x="1320" y="840" width="2" height="2"/>
    <rect x="1400" y="840" width="2" height="2"/>
    <rect x="1480" y="840" width="2" height="2"/>
    <rect x="1560" y="840" width="2" height="2"/>
  </g>
</svg>
